<svg width="24" height="24" viewBox="0 0 24 24" fill="none" xmlns="http://www.w3.org/2000/svg">
    <path
        d="M2 3H22C23.1046 3 24 3.89543 24 5V18.7391C24 19.8437 23.1046 20.7391 22 20.7391H2C0.89543 20.7391 0 19.8437 0 18.7391V5C0 3.89543 0.89543 3 2 3Z"
        fill="#243747" />
    <path
        d="M9.39169 16.0435C11.6969 16.0435 13.5656 14.1748 13.5656 11.8696C13.5656 9.5644 11.6969 7.69568 9.39169 7.69568C7.0865 7.69568 5.21777 9.5644 5.21777 11.8696C5.21777 14.1748 7.0865 16.0435 9.39169 16.0435Z"
        fill="#E61C24" />
    <path
        d="M14.5743 16.0435C16.8795 16.0435 18.7482 14.1748 18.7482 11.8696C18.7482 9.5644 16.8795 7.69568 14.5743 7.69568C12.2691 7.69568 10.4004 9.5644 10.4004 11.8696C10.4004 14.1748 12.2691 16.0435 14.5743 16.0435Z"
        fill="#F99F1B" />
    <path fill-rule="evenodd" clip-rule="evenodd"
        d="M11.9828 8.60138C10.9834 9.3915 10.4004 10.5955 10.4004 11.8696C10.4004 13.1436 10.9834 14.3476 11.9828 15.1377C12.9823 14.3476 13.5652 13.1436 13.5652 11.8696C13.5652 10.5955 12.9823 9.3915 11.9828 8.60138Z"
        fill="#F26622" />
</svg>
    