<svg width="18" height="18" viewBox="0 0 18 18" fill="none" xmlns="http://www.w3.org/2000/svg">
    <path fill-rule="evenodd" clip-rule="evenodd" d="M12.7071 7.45711C13.0976 7.06658 13.0976 6.43342 12.7071 6.04289C12.3166 5.65237 11.6834 5.65237 11.2929 6.04289L8.25 9.08579L7.08211 7.91789C6.69158 7.52737 6.05842 7.52737 5.66789 7.91789C5.27737 8.30842 5.27737 8.94158 5.66789 9.33211L7.54289 11.2071C7.93342 11.5976 8.56658 11.5976 8.95711 11.2071L12.7071 7.45711Z" fill="#1B365C"/>
    <path d="M1 9C1 10.8301 1.09936 12.2324 1.34019 13.316C1.57849 14.3883 1.94181 15.0862 2.42779 15.5722C2.91378 16.0582 3.6117 16.4215 4.68397 16.6598C5.7676 16.9006 7.16995 17 9 17C10.8301 17 12.2324 16.9006 13.316 16.6598C14.3883 16.4215 15.0862 16.0582 15.5722 15.5722C16.0582 15.0862 16.4215 14.3883 16.6598 13.316C16.9006 12.2324 17 10.8301 17 9C17 7.16995 16.9006 5.7676 16.6598 4.68397C16.4215 3.6117 16.0582 2.91378 15.5722 2.42779C15.0862 1.94181 14.3883 1.5785 13.316 1.34019C12.2324 1.09936 10.8301 1 9 1C7.16995 1 5.7676 1.09936 4.68397 1.34019C3.6117 1.5785 2.91378 1.94181 2.42779 2.42779C1.94181 2.91378 1.57849 3.6117 1.34019 4.68397C1.09936 5.7676 1 7.16995 1 9Z" stroke="#1B365C" stroke-width="2" stroke-linecap="round" stroke-linejoin="round"/>
    </svg>
    