<svg width="12" height="12" viewBox="0 0 12 12" fill="none" xmlns="http://www.w3.org/2000/svg">
    <path
        d="M0.5 6.92308C0.5 7.95688 0.556046 8.7535 0.693431 9.37167C0.829553 9.98416 1.03879 10.3904 1.3242 10.6758C1.60962 10.9612 2.01585 11.1704 2.62835 11.3066C3.24653 11.444 4.04316 11.5 5.07696 11.5C6.11077 11.5 6.9074 11.444 7.52557 11.3066C8.13807 11.1704 8.54431 10.9612 8.82972 10.6758C9.11514 10.3904 9.32437 9.98416 9.4605 9.37167C9.59788 8.7535 9.65393 7.95688 9.65393 6.92308C9.65393 5.88928 9.59788 5.09266 9.4605 4.47449C9.32437 3.862 9.11514 3.45577 8.82972 3.17035C8.54431 2.88494 8.13807 2.67571 7.52557 2.53958C6.9074 2.4022 6.11077 2.34615 5.07696 2.34615C4.04316 2.34615 3.24653 2.4022 2.62835 2.53958C2.01585 2.67571 1.60962 2.88494 1.3242 3.17035C1.03879 3.45577 0.829553 3.862 0.693431 4.47449C0.556046 5.09266 0.5 5.88928 0.5 6.92308Z"
        stroke="#848484" stroke-linecap="round" stroke-linejoin="round" />
    <path fill-rule="evenodd" clip-rule="evenodd"
        d="M10.1365 7.84287C10.1193 8.2513 10.0889 8.62162 10.0419 8.95709C11.5982 8.48143 12.0001 7.28503 12.0001 4.61538C12.0001 0.923077 11.077 0 7.3847 0C4.71503 0 3.51863 0.4019 3.04297 1.95822C3.37844 1.91121 3.74875 1.88078 4.15718 1.86366C4.22079 1.74741 4.2889 1.65941 4.3588 1.58951C4.52238 1.42593 4.78506 1.27219 5.27703 1.16285C5.78035 1.051 6.45733 1 7.3847 1C9.23802 1 9.99563 1.25588 10.3699 1.63019C10.7442 2.00449 11.0001 2.76208 11.0001 4.61538C11.0001 5.54275 10.9491 6.21972 10.8373 6.72304C10.7279 7.215 10.5742 7.47768 10.4106 7.64126C10.3407 7.71116 10.2527 7.77926 10.1365 7.84287Z"
        fill="#848484" />
</svg>
    