<svg width="12" height="15" viewBox="0 0 12 15" fill="none" xmlns="http://www.w3.org/2000/svg">
    <path
        d="M0.724348 8.89132C0.76025 9.05278 0.794737 9.20896 0.828112 9.3601C1.02073 10.2324 1.17632 10.937 1.35318 11.5212C1.55982 12.2038 1.77906 12.6613 2.07041 12.9857C2.63378 13.6129 3.61265 13.8998 5.99992 13.8998C8.38719 13.8998 9.36606 13.6129 9.92943 12.9857C10.2208 12.6613 10.44 12.2038 10.6466 11.5212C10.8235 10.937 10.9791 10.2324 11.1717 9.36012C11.2051 9.20897 11.2396 9.05279 11.2755 8.89132C11.7445 6.78237 11.4454 5.68648 10.7009 5.06332C10.3046 4.7316 9.73185 4.48596 8.93923 4.32633C8.14799 4.16697 7.17182 4.09993 5.99992 4.09993C4.82801 4.09993 3.85185 4.16697 3.06061 4.32633C2.26799 4.48596 1.69522 4.7316 1.29891 5.06332C0.554425 5.68648 0.255394 6.78237 0.724348 8.89132Z"
        stroke="#848484" stroke-linecap="round" stroke-linejoin="round" />
    <path d="M5.99958 7.19989V10.7998M3.59961 7.19989V10.7998M8.39954 7.19989V10.7998"
        stroke="#848484" stroke-linecap="round" stroke-linejoin="round" />
    <path fill-rule="evenodd" clip-rule="evenodd"
        d="M7.19958 1.34259C9.37371 1.50104 10.8286 2.0728 11.6574 2.57156C11.894 2.71396 11.9703 3.02119 11.8279 3.25779C11.6855 3.49439 11.3783 3.57075 11.1417 3.42836C10.3422 2.9472 8.68884 2.29998 5.9996 2.29998C3.30298 2.29998 1.60243 2.95038 0.869787 3.42072C0.637409 3.5699 0.328094 3.50245 0.178913 3.27008C0.0297316 3.0377 0.0971762 2.72838 0.329554 2.5792C1.12092 2.07116 2.61675 1.50027 4.79961 1.34238V1C4.79961 0.447715 5.24733 0 5.79961 0H6.19958C6.75187 0 7.19958 0.447715 7.19958 1V1.34259Z"
        fill="#848484" />
</svg>
    