<svg width="24" height="24" viewBox="0 0 24 24" fill="none" xmlns="http://www.w3.org/2000/svg">
    <path fill-rule="evenodd" clip-rule="evenodd"
        d="M3.85039 12C3.85039 7.4989 7.49927 3.85002 12.0004 3.85002C12.8913 3.85002 13.7472 3.99266 14.5475 4.2557C14.9934 4.40228 15.4738 4.15958 15.6204 3.71361C15.767 3.26764 15.5243 2.78728 15.0783 2.6407C14.1088 2.32206 13.0739 2.15002 12.0004 2.15002C6.56039 2.15002 2.15039 6.56002 2.15039 12C2.15039 17.44 6.56039 21.85 12.0004 21.85C17.4404 21.85 21.8504 17.44 21.8504 12C21.8504 11.5306 21.4698 11.15 21.0004 11.15C20.5309 11.15 20.1504 11.5306 20.1504 12C20.1504 16.5011 16.5015 20.15 12.0004 20.15C7.49927 20.15 3.85039 16.5011 3.85039 12ZM19.6027 7.59976C19.934 7.2671 19.9328 6.72891 19.6001 6.39768C19.2675 6.06646 18.7293 6.06762 18.398 6.40029L12.05 12.776L9.62132 10.1781C9.30073 9.83514 8.76284 9.81703 8.41992 10.1376C8.07699 10.4582 8.05888 10.9961 8.37946 11.339L11.4098 14.5805C11.5673 14.749 11.7866 14.8463 12.0173 14.8499C12.248 14.8536 12.4703 14.7633 12.633 14.5998L19.6027 7.59976Z"
        fill="#007405" />
</svg>
    