<svg width="206" height="46" viewBox="0 0 206 46" fill="none" xmlns="http://www.w3.org/2000/svg">
    <path
        d="M10.246 16.5L11.828 6H3.6L0.162 15C0.0559999 15.32 0 15.652 0 16C0 18.208 2.3 20 5.142 20C7.762 20 9.928 18.472 10.246 16.5ZM18 20C20.84 20 23.142 18.208 23.142 16C23.142 15.918 23.136 15.836 23.132 15.758L22.114 6H13.886L12.866 15.75C12.862 15.832 12.858 15.914 12.858 16C12.858 18.208 15.16 20 18 20ZM28 22.092V30H8V22.104C7.124 22.42 6.16 22.6 5.142 22.6C4.752 22.6 4.374 22.554 4 22.502V35.2C4 36.74 5.258 38 6.796 38H29.2C30.74 38 32 36.738 32 35.2V22.504C31.6219 22.562 31.2404 22.5948 30.858 22.602C29.8828 22.601 28.9154 22.4284 28 22.092ZM35.84 15L32.398 6H24.172L25.752 16.484C26.06 18.464 28.226 20 30.858 20C33.698 20 36 18.208 36 16C36 15.652 35.944 15.32 35.84 15Z"
        fill="#1A1A1C" />
    <path
        d="M66.56 36V15.408H59.756V10.44H78.692V15.408H71.816V36H66.56ZM85.8403 36.396C83.4643 36.396 81.4603 35.472 79.8283 33.624C78.1963 31.776 77.3803 29.568 77.3803 27C77.3803 24.432 78.1963 22.224 79.8283 20.376C81.4603 18.528 83.4643 17.604 85.8403 17.604C86.9923 17.604 88.0243 17.844 88.9363 18.324C89.8483 18.804 90.5443 19.368 91.0243 20.016V18H95.9563V36H91.0243V33.984C90.5443 34.632 89.8483 35.196 88.9363 35.676C88.0243 36.156 86.9923 36.396 85.8403 36.396ZM83.5723 30.528C84.4123 31.44 85.5163 31.896 86.8843 31.896C88.2523 31.896 89.3443 31.44 90.1603 30.528C91.0003 29.616 91.4203 28.44 91.4203 27C91.4203 25.56 91.0003 24.384 90.1603 23.472C89.3443 22.56 88.2523 22.104 86.8843 22.104C85.5163 22.104 84.4123 22.56 83.5723 23.472C82.7563 24.384 82.3483 25.56 82.3483 27C82.3483 28.44 82.7563 29.616 83.5723 30.528ZM103.199 15.048C102.359 15.048 101.627 14.748 101.003 14.148C100.379 13.524 100.067 12.78 100.067 11.916C100.067 11.052 100.379 10.32 101.003 9.72C101.627 9.096 102.359 8.784 103.199 8.784C104.087 8.784 104.831 9.096 105.431 9.72C106.055 10.32 106.367 11.052 106.367 11.916C106.367 12.78 106.055 13.524 105.431 14.148C104.831 14.748 104.087 15.048 103.199 15.048ZM100.751 36V18H105.683V36H100.751ZM110.419 36V9H115.351V36H110.419ZM135.063 33.696C133.215 35.496 130.983 36.396 128.367 36.396C125.751 36.396 123.519 35.496 121.671 33.696C119.823 31.872 118.899 29.64 118.899 27C118.899 24.384 119.823 22.164 121.671 20.34C123.519 18.516 125.751 17.604 128.367 17.604C130.983 17.604 133.215 18.516 135.063 20.34C136.911 22.164 137.835 24.384 137.835 27C137.835 29.64 136.911 31.872 135.063 33.696ZM128.367 31.788C129.639 31.788 130.695 31.344 131.535 30.456C132.399 29.544 132.831 28.392 132.831 27C132.831 25.608 132.399 24.468 131.535 23.58C130.695 22.668 129.639 22.212 128.367 22.212C127.071 22.212 125.991 22.668 125.127 23.58C124.287 24.468 123.867 25.608 123.867 27C123.867 28.392 124.287 29.544 125.127 30.456C125.991 31.344 127.071 31.788 128.367 31.788ZM141.392 36V18H146.324V20.88C146.636 19.992 147.2 19.26 148.016 18.684C148.856 18.084 149.78 17.784 150.788 17.784C151.412 17.784 151.964 17.856 152.444 18V23.004C151.652 22.74 150.908 22.608 150.212 22.608C149.036 22.608 148.088 23.04 147.368 23.904C146.672 24.744 146.324 25.908 146.324 27.396V36H141.392ZM156.063 10.44H160.815L169.131 21.852L177.447 10.44H182.199V36H176.979V19.368L169.131 30.132L161.283 19.368V36H156.063V10.44ZM195.269 36.396C192.509 36.396 190.241 35.508 188.465 33.732C186.713 31.956 185.837 29.7 185.837 26.964C185.837 24.276 186.725 22.044 188.501 20.268C190.301 18.492 192.569 17.604 195.305 17.604C198.065 17.604 200.357 18.552 202.181 20.448C204.005 22.32 204.845 24.888 204.701 28.152H190.661C190.757 29.28 191.225 30.228 192.065 30.996C192.905 31.74 194.057 32.112 195.521 32.112C196.409 32.112 197.189 31.944 197.861 31.608C198.557 31.248 199.049 30.756 199.337 30.132H204.485C203.957 31.98 202.853 33.492 201.173 34.668C199.493 35.82 197.525 36.396 195.269 36.396ZM195.161 21.6C194.033 21.6 193.085 21.9 192.317 22.5C191.573 23.076 191.081 23.88 190.841 24.912H199.301C199.037 23.784 198.509 22.956 197.717 22.428C196.949 21.876 196.097 21.6 195.161 21.6Z"
        fill="#5F5F5F" />
</svg>
    