<svg width="14" height="14" viewBox="0 0 14 14" fill="none" xmlns="http://www.w3.org/2000/svg">
<path d="M0.5 7C0.5 8.42971 0.57726 9.54448 0.771209 10.4172C0.963896 11.2842 1.26505 11.8813 1.69187 12.3081C2.11869 12.735 2.71581 13.0361 3.58283 13.2288C4.45552 13.4227 5.57029 13.5 7 13.5C8.42971 13.5 9.54448 13.4227 10.4172 13.2288C11.2842 13.0361 11.8813 12.735 12.3081 12.3081C12.735 11.8813 13.0361 11.2842 13.2288 10.4172C13.4227 9.54448 13.5 8.42971 13.5 7C13.5 5.57029 13.4227 4.45552 13.2288 3.58283C13.0361 2.71581 12.735 2.11869 12.3081 1.69187C11.8813 1.26505 11.2842 0.963896 10.4172 0.771209C9.54448 0.57726 8.42971 0.5 7 0.5C5.57029 0.5 4.45552 0.57726 3.58283 0.771209C2.71581 0.963896 2.11869 1.26505 1.69187 1.69187C1.26505 2.11869 0.963896 2.71581 0.771209 3.58283C0.57726 4.45552 0.5 5.57029 0.5 7Z" stroke="#212135" stroke-linecap="round" stroke-linejoin="round"/>
<path d="M1.45898 4.66663L12.5423 4.66663" stroke="#212135" stroke-width="2" stroke-linecap="square" stroke-linejoin="round"/>
<path d="M8.16602 10.5H10.4993" stroke="#212135" stroke-linecap="round" stroke-linejoin="round"/>
</svg>
