<svg width="24" height="29" viewBox="0 0 24 29" fill="none" xmlns="http://www.w3.org/2000/svg">
    <g clip-path="url(#clip0_211_2731)">
        <path
            d="M6.81768 27.3571L7.30845 24.2399L6.21525 24.2145H0.995117L4.62284 1.21236C4.6341 1.14292 4.6707 1.07817 4.72419 1.03219C4.77767 0.986212 4.84617 0.960876 4.91749 0.960876H13.7194C16.6414 0.960876 18.658 1.56894 19.7108 2.76911C20.2044 3.33213 20.5188 3.92049 20.6708 4.56796C20.8303 5.24734 20.8331 6.05902 20.6774 7.049L20.6661 7.12125V7.75559L21.1597 8.03522C21.5754 8.25574 21.9057 8.50816 22.159 8.79718C22.5813 9.27856 22.8544 9.89038 22.9698 10.6157C23.089 11.3617 23.0496 12.2494 22.8544 13.2544C22.6292 14.4105 22.2651 15.4174 21.7734 16.2412C21.3211 17.0004 20.7449 17.63 20.0609 18.118C19.4077 18.5815 18.6317 18.9334 17.7543 19.1586C16.9042 19.3801 15.9349 19.4917 14.8717 19.4917H14.1867C13.6969 19.4917 13.2211 19.6682 12.8476 19.9844C12.4732 20.3072 12.2255 20.7482 12.1495 21.2305L12.0979 21.5111L11.2308 27.0052L11.1914 27.207C11.1811 27.2708 11.1633 27.3027 11.137 27.3243C11.1135 27.344 11.0797 27.3571 11.0469 27.3571H6.81768Z"
            fill="#253B80" />
        <path
            d="M21.6272 7.19446C21.6009 7.36243 21.5709 7.53415 21.5371 7.71056C20.3763 13.6701 16.4052 15.7289 11.3333 15.7289H8.75092C8.13066 15.7289 7.60799 16.1793 7.51134 16.7911L6.18918 25.1764L5.81477 27.5533C5.7519 27.9549 6.06156 28.3171 6.46694 28.3171H11.0471C11.5895 28.3171 12.0502 27.923 12.1356 27.3881L12.1807 27.1554L13.043 21.6828L13.0984 21.3826C13.1828 20.8458 13.6445 20.4517 14.1869 20.4517H14.8719C19.3094 20.4517 22.7833 18.65 23.7986 13.4365C24.2227 11.2585 24.0031 9.43997 22.8809 8.16098C22.5412 7.77531 22.1198 7.45532 21.6272 7.19446Z"
            fill="#179BD7" />
        <path
            d="M20.4133 6.71028C20.236 6.65867 20.053 6.61175 19.8653 6.56952C19.6767 6.52823 19.4834 6.49164 19.2845 6.45973C18.5882 6.34713 17.8253 6.29364 17.008 6.29364H10.1091C9.93927 6.29364 9.77787 6.33211 9.63337 6.40155C9.31526 6.55451 9.07879 6.85572 9.02155 7.2245L7.55395 16.52L7.51172 16.7911C7.60837 16.1793 8.13104 15.7289 8.7513 15.7289H11.3337C16.4056 15.7289 20.3767 13.6692 21.5375 7.71057C21.5722 7.53416 21.6013 7.36244 21.6276 7.19447C21.3339 7.0387 21.0158 6.90546 20.6733 6.79191C20.5888 6.76376 20.5015 6.73655 20.4133 6.71028Z"
            fill="#222D65" />
        <path
            d="M9.02145 7.22449C9.07869 6.85571 9.31516 6.55449 9.63326 6.40248C9.77871 6.33304 9.93917 6.29456 10.109 6.29456H17.0079C17.8252 6.29456 18.5881 6.34805 19.2844 6.46066C19.4833 6.49256 19.6766 6.52916 19.8652 6.57044C20.0529 6.61267 20.2359 6.65959 20.4132 6.7112C20.5014 6.73747 20.5887 6.76469 20.6741 6.7919C21.0166 6.90544 21.3347 7.03963 21.6284 7.19446C21.9737 4.99211 21.6256 3.4926 20.4348 2.13478C19.122 0.639966 16.7527 0 13.7208 0H4.91891C4.29959 0 3.77129 0.450416 3.67557 1.06317L0.00937318 24.3018C-0.0628811 24.7616 0.291822 25.1764 0.755375 25.1764H6.18946L7.55384 16.5199L9.02145 7.22449Z"
            fill="#253B80" />
    </g>
    <defs>
        <clipPath id="clip0_211_2731">
            <rect width="24" height="28.3171" fill="white" />
        </clipPath>
    </defs>
</svg>
    