<svg width="100" height="100" viewBox="0 0 100 100" fill="none" xmlns="http://www.w3.org/2000/svg">
    <path fill-rule="evenodd" clip-rule="evenodd"
        d="M16.0423 50C16.0423 31.2453 31.246 16.0416 50.0007 16.0416C53.7128 16.0416 57.279 16.636 60.6135 17.732C62.4717 18.3427 64.4732 17.3315 65.084 15.4733C65.6947 13.6151 64.6835 11.6136 62.8253 11.0028C58.7859 9.67511 54.4734 8.95831 50.0007 8.95831C27.334 8.95831 8.95898 27.3333 8.95898 50C8.95898 72.6667 27.334 91.0416 50.0007 91.0416C72.6673 91.0416 91.0423 72.6667 91.0423 50C91.0423 48.044 89.4567 46.4583 87.5006 46.4583C85.5446 46.4583 83.959 48.044 83.959 50C83.959 68.7546 68.7553 83.9583 50.0007 83.9583C31.246 83.9583 16.0423 68.7546 16.0423 50ZM81.6771 31.6655C83.0572 30.2794 83.0523 28.037 81.6662 26.6569C80.2801 25.2768 78.0377 25.2816 76.6576 26.6677L50.2072 53.2331L40.0878 42.4085C38.7521 40.9796 36.5109 40.9042 35.082 42.24C33.6531 43.5757 33.5777 45.8169 34.9135 47.2458L47.5397 60.752C48.1962 61.4542 49.11 61.8594 50.0712 61.8745C51.0323 61.8897 51.9584 61.5134 52.6367 60.8322L81.6771 31.6655Z"
        fill="#007405" />
</svg>
    