<svg width="22" height="23" viewBox="0 0 22 23" fill="none" xmlns="http://www.w3.org/2000/svg">
    <path
        d="M8.02375 0.54835C7.67219 0.197224 7.19563 0 6.69875 0C6.20187 0 5.72531 0.197224 5.37375 0.54835L0.55 5.36085C0.200108 5.71337 0.00260583 6.18917 0 6.68585C0.00043763 7.18296 0.198269 7.65956 0.55 8.01085L14.3237 21.7984C14.6773 22.1505 15.156 22.3483 15.655 22.3483C16.154 22.3483 16.6327 22.1505 16.9863 21.7984L21.7988 16.9734C21.974 16.8 22.1131 16.5937 22.208 16.3662C22.3029 16.1388 22.3518 15.8948 22.3518 15.6484C22.3518 15.4019 22.3029 15.1579 22.208 14.9305C22.1131 14.703 21.974 14.4967 21.7988 14.3234L8.02375 0.54835ZM6.62375 5.02335C6.56517 5.08145 6.51867 5.15058 6.48694 5.22674C6.45521 5.3029 6.43888 5.38459 6.43888 5.4671C6.43888 5.54961 6.45521 5.6313 6.48694 5.70746C6.51867 5.78362 6.56517 5.85275 6.62375 5.91085C6.74468 6.02224 6.90309 6.08407 7.0675 6.08407C7.23191 6.08407 7.39032 6.02224 7.51125 5.91085C8.19875 5.21085 8.87375 4.53585 9.57375 3.86085L11.1363 5.42335L10.0113 6.54835C9.95195 6.60475 9.90473 6.67261 9.87246 6.74782C9.8402 6.82303 9.82356 6.90401 9.82356 6.98585C9.82356 7.06769 9.8402 7.14867 9.87246 7.22388C9.90473 7.29909 9.95195 7.36695 10.0113 7.42335C10.0694 7.48193 10.1385 7.52843 10.2146 7.56016C10.2908 7.59189 10.3725 7.60822 10.455 7.60822C10.5375 7.60822 10.6192 7.59189 10.6954 7.56016C10.7715 7.52843 10.8406 7.48193 10.8988 7.42335C11.2612 7.04835 11.6487 6.67335 12.0237 6.31085L13.5862 7.87335L11.5363 9.93585C11.4221 10.0523 11.3586 10.209 11.3594 10.3721C11.3603 10.5351 11.4254 10.6912 11.5406 10.8065C11.6559 10.9217 11.812 10.9868 11.975 10.9877C12.1381 10.9885 12.2948 10.925 12.4113 10.8109C13.1113 10.1233 13.7863 9.44835 14.4738 8.76085L16.0363 10.3234L14.9113 11.4483C14.7977 11.5706 14.7352 11.7315 14.7362 11.8984C14.7353 12.0614 14.7981 12.2184 14.9113 12.3359C15.0306 12.4503 15.1896 12.5142 15.355 12.5142C15.5204 12.5142 15.6794 12.4503 15.7987 12.3359L16.9238 11.2108L18.4987 12.7858L16.4363 14.8359C16.378 14.8941 16.3318 14.9633 16.3002 15.0394C16.2687 15.1156 16.2524 15.1972 16.2524 15.2796C16.2524 15.362 16.2687 15.4436 16.3002 15.5198C16.3318 15.5959 16.378 15.6651 16.4363 15.7234C16.4945 15.7816 16.5637 15.8278 16.6398 15.8594C16.716 15.8909 16.7976 15.9072 16.88 15.9072C16.9624 15.9072 17.044 15.8909 17.1202 15.8594C17.1963 15.8278 17.2655 15.7816 17.3238 15.7234C18.0113 15.0233 18.6863 14.3484 19.3863 13.6734L20.9237 15.2108C21.0383 15.3277 21.1024 15.4848 21.1024 15.6484C21.1024 15.8119 21.0383 15.969 20.9237 16.0859L16.0987 20.9109C16.0406 20.9694 15.9715 21.0159 15.8954 21.0477C15.8192 21.0794 15.7375 21.0957 15.655 21.0957C15.5725 21.0957 15.4908 21.0794 15.4146 21.0477C15.3385 21.0159 15.2694 20.9694 15.2113 20.9109L1.43625 7.13585C1.37592 7.07763 1.32815 7.00766 1.2959 6.93026C1.26366 6.85287 1.24761 6.76969 1.24875 6.68585C1.24887 6.60405 1.26554 6.52312 1.29777 6.44793C1.32999 6.37274 1.3771 6.30485 1.43625 6.24835L6.26125 1.42335C6.37928 1.31115 6.5359 1.24859 6.69875 1.24859C6.8616 1.24859 7.01822 1.31115 7.13625 1.42335L8.68625 2.97335L6.62375 5.02335Z"
        fill="white" />
    <path
        d="M19.8488 12.3734L19.7988 12.3234C19.8113 12.3234 19.8113 12.3234 19.8238 12.3359C19.8363 12.3484 19.8488 12.3609 19.8488 12.3734Z"
        fill="white" />
</svg>
    