<svg width="24" height="24" viewBox="0 0 24 24" fill="none" xmlns="http://www.w3.org/2000/svg">
    <g clip-path="url(#clip0_151_3200)">
        <path
            d="M17.9999 15.36C16.8479 15.36 15.8159 15.912 15.1679 16.752L9.3359 13.368C9.6959 12.48 9.6959 11.496 9.3359 10.608L15.1679 7.22399C15.8159 8.06399 16.8479 8.61599 17.9999 8.61599C19.9919 8.61599 21.5999 7.00799 21.5999 5.01599C21.5999 3.02399 19.9919 1.41599 17.9999 1.41599C16.0079 1.41599 14.3999 3.02399 14.3999 5.01599C14.3999 5.49599 14.4959 5.97599 14.6639 6.38399L8.8319 9.79198C8.1599 8.95198 7.1519 8.39998 5.9999 8.39998C4.0079 8.39998 2.3999 10.008 2.3999 12C2.3999 13.992 4.0079 15.6 5.9999 15.6C7.1519 15.6 8.1839 15.048 8.8319 14.208L14.6639 17.592C14.4959 18 14.3999 18.48 14.3999 18.96C14.3999 20.952 16.0079 22.56 17.9999 22.56C19.9919 22.56 21.5999 20.952 21.5999 18.96C21.5999 16.968 19.9919 15.36 17.9999 15.36ZM17.9999 2.39999C19.4639 2.39999 20.6399 3.57599 20.6399 5.03999C20.6399 6.50398 19.4639 7.67999 17.9999 7.67999C16.5359 7.67999 15.3599 6.50398 15.3599 5.03999C15.3599 3.57599 16.5359 2.39999 17.9999 2.39999ZM5.9999 14.64C4.5359 14.64 3.3599 13.464 3.3599 12C3.3599 10.536 4.5359 9.35998 5.9999 9.35998C7.4639 9.35998 8.6399 10.536 8.6399 12C8.6399 13.464 7.4639 14.64 5.9999 14.64ZM17.9999 21.6C16.5359 21.6 15.3599 20.424 15.3599 18.96C15.3599 17.496 16.5359 16.32 17.9999 16.32C19.4639 16.32 20.6399 17.496 20.6399 18.96C20.6399 20.424 19.4639 21.6 17.9999 21.6Z"
            fill="#1A1A1C" />
        <path
            d="M394.56 -122.4V281.76H-33.6V-122.4H394.56ZM396.48 -124.32H-35.52V283.68H396.48V-124.32Z"
            fill="#1A1A1C" />
    </g>
    <defs>
        <clipPath id="clip0_151_3200">
            <rect width="24" height="24" fill="white" />
        </clipPath>
    </defs>
</svg>
    