<svg width="60" height="42" viewBox="0 0 60 42" fill="none" xmlns="http://www.w3.org/2000/svg">
    <path
        d="M30.5085 0C13.9323 0 1.01691 6.71187 1.01691 15.2543V26.4408C1.01691 27.4542 1.18471 28.551 1.59431 29.5802C0.616725 30.4283 0 31.6976 0 33.1526V37.1187C0 39.6611 2.03394 41.695 4.57628 41.695H11.1865H13.2204H30.5085C31.1064 41.695 31.6988 41.6852 32.2867 41.6681C32.3673 41.6851 32.4524 41.695 32.5425 41.695C32.6409 41.695 32.7392 41.6794 32.8338 41.6504C34.431 41.5889 35.9878 41.4637 37.4965 41.2811C37.5391 41.2854 37.5823 41.2883 37.6271 41.2883C37.7321 41.2883 37.8368 41.2656 37.9372 41.2268C39.6058 41.0109 41.2129 40.7235 42.7467 40.3709C42.8519 40.3661 42.9565 40.3404 43.0561 40.2976C53.1636 37.9 60 32.6553 60 26.4409V15.2543C60.0001 6.71187 47.0848 0 30.5085 0ZM30.5085 2.03394C45.356 2.03394 57.9662 8.13564 57.9662 15.2543C57.9662 22.3729 45.356 28.4746 30.5085 28.4746C15.661 28.4746 3.05085 22.3729 3.05085 15.2543C3.05085 8.13564 15.661 2.03394 30.5085 2.03394ZM3.35594 28.4746C3.15251 27.7627 3.05085 27.1526 3.05085 26.4406V20.9491C3.29099 21.2593 3.55055 21.5643 3.82751 21.8642C6.2297 24.5119 10.0524 26.7207 14.8238 28.2428C15.0668 28.3216 15.3113 28.3991 15.5595 28.4745H13.2204H11.1865H4.57628L3.35594 28.4746ZM11.1865 39.6611H4.57628C3.15251 39.6611 2.03394 38.5424 2.03394 37.017V33.0508C2.03394 31.6271 3.15263 30.5085 4.57628 30.5085H11.1865V39.6611ZM57.9662 26.4408C57.9662 27.1986 57.822 27.9447 57.5486 28.6735C57.3733 28.5464 57.1615 28.4747 56.9491 28.4747C56.339 28.4747 55.9322 28.8814 55.9322 29.4916V31.3158C55.361 31.9801 54.68 32.6199 53.8983 33.2293V32.5425C53.8983 31.9323 53.4916 31.5255 52.8814 31.5255C52.2712 31.5255 51.8645 31.9323 51.8645 32.5425V34.6132C50.933 35.1711 49.9129 35.6941 48.8136 36.1759V34.5763C48.8136 33.9661 48.4069 33.5594 47.7967 33.5594C47.1865 33.5594 46.7798 33.9661 46.7798 34.5763V36.9884C45.8084 37.3412 44.7886 37.6636 43.729 37.9538V36.6102C43.729 36 43.3222 35.5933 42.712 35.5933C42.1019 35.5933 41.6951 36 41.6951 36.6102V38.4596C40.706 38.6806 39.6873 38.8737 38.6443 39.0368V37.6272C38.6443 37.0171 38.2375 36.6103 37.6274 36.6103C37.0172 36.6103 36.6105 37.0171 36.6105 37.6272V39.3133C35.6112 39.4286 34.5926 39.5153 33.5596 39.5738V37.6272C33.5596 37.0171 33.1529 36.6103 32.5427 36.6103C31.9325 36.6103 31.5258 37.0171 31.5258 37.6272V39.6505C31.1879 39.6568 30.8492 39.6611 30.5089 39.6611H28.4749V37.6271C28.4749 37.017 28.0682 36.6102 27.458 36.6102C26.8479 36.6102 26.4411 37.017 26.4411 37.6271V39.6611H23.3903V37.6271C23.3903 37.017 22.9835 36.6102 22.3733 36.6102C21.7632 36.6102 21.3564 37.017 21.3564 37.6271V39.6611H18.3056V37.6271C18.3056 37.017 17.8988 36.6102 17.2887 36.6102C16.6785 36.6102 16.2718 37.017 16.2718 37.6271V39.6611H13.2209V30.5085H30.5085C30.7388 30.5085 30.968 30.5068 31.1969 30.5042C31.2824 30.5033 31.3678 30.5017 31.4531 30.5004C31.5894 30.4983 31.7255 30.4958 31.8614 30.4927C31.9745 30.4902 32.0874 30.4874 32.2001 30.4843C32.2819 30.4819 32.3636 30.4792 32.4453 30.4766C42.8685 30.1434 51.6395 27.1363 56.3293 22.7365C56.3445 22.7224 56.3595 22.7082 56.3745 22.694C56.4288 22.6427 56.4834 22.5916 56.5367 22.5398C57.0705 22.0266 57.5488 21.4958 57.9662 20.9492V26.4408Z"
        fill="#848484" />
</svg>
    