<svg width="60" height="60" viewBox="0 0 60 60" fill="none" xmlns="http://www.w3.org/2000/svg">
    <path
        d="M1 30C1 36.1534 1.33102 41.03 2.18954 44.893C3.04554 48.7446 4.41259 51.5271 6.44273 53.5573C8.47287 55.5874 11.2554 56.9545 15.107 57.8105C18.97 58.669 23.8466 59 30 59C36.1534 59 41.03 58.669 44.893 57.8105C48.7446 56.9545 51.5271 55.5874 53.5573 53.5573C55.5874 51.5271 56.9545 48.7446 57.8105 44.893C58.669 41.03 59 36.1534 59 30C59 23.8466 58.669 18.97 57.8105 15.107C56.9545 11.2554 55.5874 8.47287 53.5573 6.44273C51.5271 4.41259 48.7446 3.04554 44.893 2.18954C41.03 1.33102 36.1534 1 30 1C23.8466 1 18.97 1.33102 15.107 2.18954C11.2554 3.04554 8.47287 4.41259 6.44273 6.44273C4.41259 8.47287 3.04554 11.2554 2.18954 15.107C1.33102 18.97 1 23.8466 1 30Z"
        stroke="#848484" stroke-width="2" stroke-linecap="round" stroke-linejoin="round" />
    <path d="M30 15C30 15 30 25 30 27.5C30 30 30 30 32.5 30C35 30 45 30 45 30" stroke="#848484"
        stroke-width="2" stroke-linecap="round" stroke-linejoin="round" />
</svg>
    